{
  "accessors": [
    {
      "bufferView": 2,
      "componentType": 5126,
      "count": 65532,
      "max": [
        14.435884475708008,
        0.10054441541433334,
        12.437288284301758
      ],
      "min": [
        -13.067645072937012,
        -1.428486704826355,
        -14.470184326171875
      ],
      "type": "VEC3"
    },
    {
      "bufferView": 2,
      "byteOffset": 786384,
      "componentType": 5126,
      "count": 65532,
      "max": [
        0.997620701789856,
        0.5105020403862,
        0.8945538997650146
      ],
      "min": [
        -0.9867026209831238,
        -1.0,
        -0.8934599757194519
      ],
      "type": "VEC3"
    },
    {
      "bufferView": 1,
      "componentType": 5126,
      "count": 65532,
      "max": [
        0.9992660284042358,
        0.9763182401657104
      ],
      "min": [
        0.000244140625,
        0.0002489282051101327
      ],
      "type": "VEC2"
    },
    {
      "bufferView": 0,
      "componentType": 5125,
      "count": 306993,
      "type": "SCALAR"
    },
    {
      "bufferView": 2,
      "byteOffset": 1572768,
      "componentType": 5126,
      "count": 65532,
      "max": [
        14.14085578918457,
        -0.047884516417980194,
        12.184426307678223
      ],
      "min": [
        -12.955878257751465,
        -1.8205937147140503,
        -14.226110458374023
      ],
      "type": "VEC3"
    },
    {
      "bufferView": 2,
      "byteOffset": 2359152,
      "componentType": 5126,
      "count": 65532,
      "max": [
        0.9999293088912964,
        0.49795398116111755,
        0.999905526638031
      ],
      "min": [
        -0.9953118562698364,
        -1.0,
        -0.9999213814735413
      ],
      "type": "VEC3"
    },
    {
      "bufferView": 1,
      "byteOffset": 524256,
      "componentType": 5126,
      "count": 65532,
      "max": [
        0.9995413422584534,
        0.9772948026657104
      ],
      "min": [
        0.000244140625,
        0.0002737833419814706
      ],
      "type": "VEC2"
    },
    {
      "bufferView": 0,
      "byteOffset": 1227972,
      "componentType": 5125,
      "count": 309546,
      "type": "SCALAR"
    },
    {
      "bufferView": 2,
      "byteOffset": 3145536,
      "componentType": 5126,
      "count": 55118,
      "max": [
        14.236161231994629,
        0.038135360926389694,
        12.363386154174805
      ],
      "min": [
        -13.052606582641602,
        -1.947447419166565,
        -14.456720352172852
      ],
      "type": "VEC3"
    },
    {
      "bufferView": 2,
      "byteOffset": 3806952,
      "componentType": 5126,
      "count": 55118,
      "max": [
        0.9996129870414734,
        0.7290924787521362,
        0.999905526638031
      ],
      "min": [
        -0.9998877644538879,
        -1.0,
        -0.9996837377548218
      ],
      "type": "VEC3"
    },
    {
      "bufferView": 1,
      "byteOffset": 1048512,
      "componentType": 5126,
      "count": 55118,
      "max": [
        0.9997161626815796,
        0.974005401134491
      ],
      "min": [
        0.000244140625,
        0.0002488089958205819
      ],
      "type": "VEC2"
    },
    {
      "bufferView": 0,
      "byteOffset": 2466156,
      "componentType": 5125,
      "count": 178227,
      "type": "SCALAR"
    }
  ],
  "asset": {
    "extras": {
      "author": "Global Digital Heritage (https://sketchfab.com/GlobalDigitalHeritage)",
      "license": "CC-BY-NC-4.0 (http://creativecommons.org/licenses/by-nc/4.0/)",
      "source": "https://sketchfab.com/3d-models/torhouse-stone-circle-galloway-scotland-fbbb8f9b0cc74e7ba99f9819726156fb",
      "title": "Torhouse Stone Circle, Galloway, Scotland"
    },
    "generator": "Sketchfab-15.58.0",
    "version": "2.0"
  },
  "bufferViews": [
    {
      "buffer": 0,
      "byteLength": 3179064,
      "name": "floatBufferViews",
      "target": 34963
    },
    {
      "buffer": 0,
      "byteLength": 1489456,
      "byteOffset": 3179064,
      "byteStride": 8,
      "name": "floatBufferViews",
      "target": 34962
    },
    {
      "buffer": 0,
      "byteLength": 4468368,
      "byteOffset": 4668520,
      "byteStride": 12,
      "name": "floatBufferViews",
      "target": 34962
    }
  ],
  "buffers": [
    {
      "byteLength": 9136888,
      "uri": "scene.bin"
    }
  ],
  "extensionsUsed": [
    "KHR_materials_unlit"
  ],
  "images": [
    {
      "uri": "textures/TORHOUSE_CIRCLE_LP_u1_v1_baseColor.jpeg"
    }
  ],
  "materials": [
    {
      "doubleSided": true,
      "extensions": {
        "KHR_materials_unlit": {}
      },
      "name": "TORHOUSE_CIRCLE_LP_u1_v1",
      "pbrMetallicRoughness": {
        "baseColorTexture": {
          "index": 0
        },
        "metallicFactor": 0.0
      }
    }
  ],
  "meshes": [
    {
      "name": "Object_0",
      "primitives": [
        {
          "attributes": {
            "NORMAL": 1,
            "POSITION": 0,
            "TEXCOORD_0": 2
          },
          "indices": 3,
          "material": 0,
          "mode": 4
        }
      ]
    },
    {
      "name": "Object_1",
      "primitives": [
        {
          "attributes": {
            "NORMAL": 5,
            "POSITION": 4,
            "TEXCOORD_0": 6
          },
          "indices": 7,
          "material": 0,
          "mode": 4
        }
      ]
    },
    {
      "name": "Object_2",
      "primitives": [
        {
          "attributes": {
            "NORMAL": 9,
            "POSITION": 8,
            "TEXCOORD_0": 10
          },
          "indices": 11,
          "material": 0,
          "mode": 4
        }
      ]
    }
  ],
  "nodes": [
    {
      "children": [
        1
      ],
      "matrix": [
        0.9984017014503479,
        -0.03785958886146546,
        0.04196120053529739,
        0.0,
        -0.03824895992875099,
        -0.9992319345474243,
        0.008515422232448833,
        0.0,
        0.04160658270120621,
        -0.010106784291565196,
        -0.9990829229354858,
        0.0,
        0.0,
        0.0,
        0.0,
        1.0
      ],
      "name": "Sketchfab_model"
    },
    {
      "children": [
        2,
        3,
        4
      ],
      "name": "TORHOUSE_CIRCLE_LP.obj.cleaner.materialmerger.gles"
    },
    {
      "mesh": 0,
      "name": "Object_2"
    },
    {
      "mesh": 1,
      "name": "Object_3"
    },
    {
      "mesh": 2,
      "name": "Object_4"
    }
  ],
  "samplers": [
    {
      "magFilter": 9729,
      "minFilter": 9987,
      "wrapS": 10497,
      "wrapT": 10497
    }
  ],
  "scene": 0,
  "scenes": [
    {
      "name": "Sketchfab_Scene",
      "nodes": [
        0
      ]
    }
  ],
  "textures": [
    {
      "sampler": 0,
      "source": 0
    }
  ]
}
